<?xml version="1.0" standalone="no"?>
<!DOCTYPE svg PUBLIC "-//W3C//DTD SVG 20010904//EN"
 "http://www.w3.org/TR/2001/REC-SVG-20010904/DTD/svg10.dtd">
<svg version="1.0" xmlns="http://www.w3.org/2000/svg"
 width="512.000000pt" height="512.000000pt" viewBox="0 0 512.000000 512.000000"
 preserveAspectRatio="xMidYMid meet">

<g transform="translate(0.000000,512.000000) scale(0.100000,-0.100000)"
fill="#000000" stroke="none">
<path d="M1400 5098 c-44 -17 -77 -44 -171 -137 -144 -143 -163 -177 -164
-286 0 -58 5 -91 19 -120 13 -27 333 -355 995 -1018 l976 -977 -977 -978
c-537 -537 -984 -993 -994 -1012 -9 -19 -19 -67 -22 -106 -7 -110 20 -160 166
-305 98 -97 127 -119 175 -137 72 -27 131 -28 199 -2 49 18 151 117 1235 1202
923 924 1187 1193 1202 1228 14 30 21 67 21 110 0 132 74 50 -1223 1346 -1123
1123 -1174 1173 -1230 1193 -72 26 -136 26 -207 -1z"/>
</g>
</svg>
